HIERARCHY
ROOT Hips
{
	OFFSET -21.947001 39.810204 44.525997
	CHANNELS 6 Xposition Yposition Zposition Zrotation Xrotation Yrotation
	JOINT Chest
	{
		OFFSET -0.201599 0.334099 6.453201
		CHANNELS 6 Xposition Yposition Zposition Zrotation Xrotation Yrotation
		JOINT Chest2
		{
			OFFSET 0.000000 0.000000 3.568001
			CHANNELS 6 Xposition Yposition Zposition Zrotation Xrotation Yrotation
			JOINT Neck
			{
				OFFSET 0.000000 0.000000 8.296402
				CHANNELS 6 Xposition Yposition Zposition Zrotation Xrotation Yrotation
				JOINT Head
				{
					OFFSET 0.000000 0.000000 2.173901
					CHANNELS 6 Xposition Yposition Zposition Zrotation Xrotation Yrotation
					End Site
					{
						OFFSET 0.000000 0.000000 7.891998
					}
				}
			}
			JOINT LeftCollar
			{
				OFFSET 1.927601 0.221401 6.049000
				CHANNELS 6 Xposition Yposition Zposition Zrotation Xrotation Yrotation
				JOINT LeftShoulder
				{
					OFFSET 4.959700 0.000000 0.000000
					CHANNELS 6 Xposition Yposition Zposition Zrotation Xrotation Yrotation
					JOINT LeftElbow
					{
						OFFSET 0.000000 0.000000 -8.654202
						CHANNELS 6 Xposition Yposition Zposition Zrotation Xrotation Yrotation
						JOINT LeftWrist
						{
							OFFSET 0.000000 0.000000 -13.864101
							CHANNELS 6 Xposition Yposition Zposition Zrotation Xrotation Yrotation
							End Site
							{
								OFFSET 0.000000 0.000000 -2.173901
							}
						}
					}
				}
			}
			JOINT RightCollar
			{
				OFFSET -3.155701 -0.764999 6.687801
				CHANNELS 6 Xposition Yposition Zposition Zrotation Xrotation Yrotation
				JOINT RightShoulder
				{
					OFFSET -3.592899 0.000000 0.000000
					CHANNELS 6 Xposition Yposition Zposition Zrotation Xrotation Yrotation
					JOINT RightElbow
					{
						OFFSET 0.000000 0.000000 -10.352398
						CHANNELS 6 Xposition Yposition Zposition Zrotation Xrotation Yrotation
						JOINT RightWrist
						{
							OFFSET 0.000000 0.000000 -12.750301
							CHANNELS 6 Xposition Yposition Zposition Zrotation Xrotation Yrotation
							End Site
							{
								OFFSET 0.000000 0.000000 -2.173901
							}
						}
					}
				}
			}
		}
	}
	JOINT LeftHip
	{
		OFFSET 2.460600 -0.518101 -2.735500
		CHANNELS 6 Xposition Yposition Zposition Zrotation Xrotation Yrotation
		JOINT LeftKnee
		{
			OFFSET 0.000000 -0.000004 -17.005899
			CHANNELS 6 Xposition Yposition Zposition Zrotation Xrotation Yrotation
			JOINT LeftAnkle
			{
				OFFSET 0.000000 0.000000 -19.194401
				CHANNELS 6 Xposition Yposition Zposition Zrotation Xrotation Yrotation
				End Site
				{
					OFFSET 0.000000 -8.134600 0.000000
				}
			}
		}
	}
	JOINT RightHip
	{
		OFFSET -3.115499 -0.679600 -2.320301
		CHANNELS 6 Xposition Yposition Zposition Zrotation Xrotation Yrotation
		JOINT RightKnee
		{
			OFFSET 0.000000 -0.000004 -17.680401
			CHANNELS 6 Xposition Yposition Zposition Zrotation Xrotation Yrotation
			JOINT RightAnkle
			{
				OFFSET 0.000000 0.000000 -16.993797
				CHANNELS 6 Xposition Yposition Zposition Zrotation Xrotation Yrotation
				End Site
				{
					OFFSET 0.000000 -8.842300 0.000000
				}
			}
		}
	}
}
MOTION
Frames: 5
Frame Time: 0.041667
-6.552604 24.450611 18.890303 2558.841744 2.942880 2.751575 -0.201598 0.334099 6.453198 -5.229390 10.718811 -5.993284 0.000001 0.000001 3.567999 2.215197 -7.700116 -0.816340 -0.000006 0.000003 8.296395 146.498979 -175.056929 182.523036 -0.000005 -0.000001 2.173898 -0.406709 -1.053403 -4.228132 1.927596 0.221406 6.049000 -7.530030 -7.096695 -9.221585 4.959704 0.000000 0.000005 172.699803 190.765981 46.188673 0.000005 0.000000 -8.654202 68.968102 -12.089408 9.129330 0.000000 0.000000 -13.864103 4200.264718 -154.962717 185.418203 -3.155708 -0.765001 6.687801 25.620007 -8.040278 -1.254970 -3.592900 0.000000 0.000005 -221.711028 156.053621 270.162231 -0.000002 0.000001 -10.352392 -260.139339 -75.676351 -219.308618 0.000008 -0.000004 -12.750299 -3.140968 182.085480 -144.738484 2.460599 -0.518106 -2.735501 -230.185599 -16.891287 91.729393 -0.000003 -0.000011 -17.005899 29.138096 201.228096 -33.649904 -0.000008 -0.000000 -19.194403 616.581011 168.491710 243.774369 -3.115496 -0.679596 -2.320303 -417.104490 -43.643963 -47.286294 -0.000001 -0.000011 -17.680401 -362.467020 201.752518 -304.229958 -0.000001 -0.000002 -16.993793 1021.035909 56.218645 -455.918843
-6.554897 24.454306 18.886297 2558.824914 2.977507 2.745874 -0.201600 0.334098 6.453200 -5.199484 10.739737 -5.974872 -0.000001 0.000003 3.567992 2.222757 -7.724472 -0.818495 0.000000 -0.000000 8.296398 146.488324 -175.027190 182.509553 -0.000003 -0.000000 2.173906 -0.359891 -1.055873 -4.245062 1.927602 0.221400 6.049000 -7.541348 -7.140550 -9.351109 4.959702 -0.000003 -0.000002 172.691238 190.829393 46.292516 0.000002 -0.000002 -8.654202 68.699620 -12.110187 9.084334 -0.000002 0.000000 -13.864100 4200.411595 -154.945000 185.370091 -3.155702 -0.765007 6.687800 25.638247 -8.006260 -1.193945 -3.592903 0.000004 0.000002 -221.644338 156.086475 270.086553 -0.000009 0.000003 -10.352392 -260.275888 -75.676235 -219.269508 0.000001 0.000002 -12.750297 -3.151418 182.156036 -144.693077 2.460603 -0.518102 -2.735497 -230.169479 -16.889953 91.751031 -0.000002 -0.000013 -17.005901 29.205704 201.242440 -33.641079 -0.000006 0.000002 -19.194399 616.613031 168.498718 243.784478 -3.115494 -0.679601 -2.320300 -417.171562 -43.657169 -47.369421 -0.000003 -0.000014 -17.680401 -362.437786 201.715225 -304.246952 -0.000002 -0.000000 -16.993792 1020.966077 56.252280 -455.740903
-6.557899 24.458309 18.881788 2558.807648 3.019591 2.736078 -0.201597 0.334102 6.453202 -5.162882 10.748547 -5.955735 -0.000002 0.000003 3.567995 2.224486 -7.740593 -0.820280 0.000002 0.000001 8.296397 146.478871 -174.993422 182.499554 -0.000004 -0.000005 2.173898 -0.326022 -1.051996 -4.261308 1.927601 0.221404 6.049003 -7.589496 -7.188110 -9.489776 4.959703 -0.000004 0.000005 172.706374 190.906192 46.396423 -0.000001 0.000001 -8.654196 68.424862 -12.127073 9.050622 0.000002 -0.000004 -13.864100 4200.554974 -154.929919 185.327894 -3.155701 -0.764997 6.687802 25.654196 -7.977491 -1.104473 -3.592897 0.000000 0.000001 -221.562034 156.124614 269.993635 -0.000002 0.000005 -10.352391 -260.435468 -75.691091 -219.299015 -0.000000 0.000000 -12.750298 -3.157742 182.231237 -144.614912 2.460603 -0.518100 -2.735499 -230.153606 -16.881489 91.776671 -0.000003 -0.000004 -17.005899 29.275024 201.257261 -33.631991 -0.000004 0.000000 -19.194399 616.645652 168.507870 243.798958 -3.115494 -0.679589 -2.320303 -417.251858 -43.675583 -47.468886 -0.000005 -0.000009 -17.680401 -362.405767 201.676567 -304.268726 0.000002 -0.000003 -16.993792 1020.877776 56.291988 -455.556023
-6.561600 24.462509 18.876894 2558.791255 3.070090 2.721009 -0.201598 0.334103 6.453205 -5.121347 10.741524 -5.936741 0.000001 0.000005 3.568003 2.220801 -7.747482 -0.821582 0.000000 0.000002 8.296391 146.472054 -174.956989 182.497546 -0.000003 0.000002 2.173900 -0.308886 -1.046484 -4.278362 1.927599 0.221405 6.048994 -7.666700 -7.237373 -9.625026 4.959704 -0.000004 0.000008 172.674873 190.942146 46.603610 0.000002 0.000001 -8.654192 68.121281 -12.223279 8.903588 0.000000 -0.000001 -13.864100 4200.684802 -154.922501 185.286394 -3.155709 -0.765002 6.687799 25.676016 -7.947482 -0.990974 -3.592896 0.000002 0.000002 -221.367360 156.157358 269.784440 -0.000001 0.000001 -10.352386 -261.081850 -75.674630 -219.869991 0.000005 -0.000003 -12.750297 -3.169139 182.309360 -144.517705 2.460601 -0.518104 -2.735502 -230.139782 -16.866725 91.805536 -0.000003 -0.000004 -17.005894 29.346553 201.271523 -33.623638 -0.000003 0.000001 -19.194403 616.678929 168.518539 243.816115 -3.115498 -0.679597 -2.320304 -417.351715 -43.698116 -47.588056 -0.000004 -0.000008 -17.680401 -362.367873 201.641173 -304.294217 -0.000002 -0.000001 -16.993793 1020.769695 56.337811 -455.367346
-6.565798 24.466904 18.871897 2558.776830 3.128565 2.699762 -0.201599 0.334099 6.453197 -5.075673 10.719038 -5.917579 0.000000 0.000009 3.568001 2.211220 -7.745321 -0.822360 -0.000000 0.000007 8.296400 146.467724 -174.919027 182.504499 -0.000001 0.000002 2.173898 -0.311865 -1.046401 -4.293214 1.927601 0.221406 6.048998 -7.759968 -7.288456 -9.750607 4.959703 -0.000004 0.000001 172.715581 191.021144 46.693875 -0.000002 -0.000005 -8.654192 67.874431 -12.227687 8.878577 0.000003 0.000002 -13.864100 4200.794085 -154.924728 185.244607 -3.155705 -0.764994 6.687797 25.706674 -7.916251 -0.858571 -3.592895 0.000004 0.000009 -221.300670 156.156306 269.667152 -0.000008 -0.000003 -10.352396 -261.317683 -75.692416 -220.018616 0.000010 -0.000002 -12.750301 -3.183069 182.402483 -144.400567 2.460599 -0.518106 -2.735501 -230.130219 -16.846315 91.836108 -0.000005 -0.000008 -17.005899 29.420835 201.285183 -33.617279 -0.000008 0.000001 -19.194399 616.713517 168.529836 243.834530 -3.115495 -0.679599 -2.320305 -417.475424 -43.723422 -47.727702 -0.000004 -0.000013 -17.680401 -362.321127 201.614972 -304.321537 0.000002 -0.000002 -16.993792 1020.651123 56.383615 -455.184133
